<svg version="1.1" xmlns="http://www.w3.org/2000/svg"
     width="512" height="512" viewBox="0 0 512 512">
  <defs>
    <radialGradient id="grad1" cx="0.3" cy="0.3" r="0.9">
      <stop offset="0%" stop-color="#FF2E92" />
      <stop offset="100%" stop-color="#9C1DE7" />
    </radialGradient>
    <linearGradient id="vGrad" x1="0" y1="0" x2="0" y2="1">
      <stop offset="0%" stop-color="#FFFFFF"/>
      <stop offset="100%" stop-color="#D0EFFF"/>
    </linearGradient>
    <filter id="neon" x="-50%" y="-50%" width="200%" height="200%">
      <feGaussianBlur in="SourceGraphic" stdDeviation="10" result="blur1"/>
      <feGaussianBlur in="SourceGraphic" stdDeviation="20" result="blur2"/>
      <feMerge>
        <feMergeNode in="blur2"/>
        <feMergeNode in="blur1"/>
        <feMergeNode in="SourceGraphic"/>
      </feMerge>
    </filter>
  </defs>

  <circle cx="256" cy="256" r="230" fill="url(#grad1)" stroke="#FFFFFF" stroke-opacity="0.3" stroke-width="8"/>
  
  <g>
    <path fill="#FFFFFF" filter="url(#neon)"
          d="M 180 190 L 256 320 L 332 190 
             C 332 190 320 190 256 260 
             C 192 190 180 190 180 190 Z"/>
    <path fill="none" stroke="#FFFFFF" stroke-width="4" filter="url(#neon)"
          d="M 180 190 L 256 320 L 332 190 
             C 332 190 320 190 256 260 
             C 192 190 180 190 180 190 Z"/>
    <path fill="url(#vGrad)"
          d="M 180 190 L 256 320 L 332 190 
             C 332 190 320 190 256 260 
             C 192 190 180 190 180 190 Z"/>
  </g>
</svg>
